<svg width="40" height="40" viewBox="0 0 40 40" fill="none" xmlns="http://www.w3.org/2000/svg">
<path id="Line 2" d="M1.23223 35.2322C0.255922 36.2085 0.255922 37.7915 1.23223 38.7678C2.20854 39.7441 3.79146 39.7441 4.76777 38.7678L1.23223 35.2322ZM39.5 3C39.5 1.61929 38.3807 0.5 37 0.5L14.5 0.5C13.1193 0.5 12 1.61929 12 3C12 4.38071 13.1193 5.5 14.5 5.5L34.5 5.5L34.5 25.5C34.5 26.8807 35.6193 28 37 28C38.3807 28 39.5 26.8807 39.5 25.5L39.5 3ZM4.76777 38.7678L38.7678 4.76777L35.2322 1.23223L1.23223 35.2322L4.76777 38.7678Z" fill="#9BEED0"/>
</svg>
